<?xml version="1.0" encoding="utf-8"?>
<!-- Uploaded to: SVG Repo, www.svgrepo.com, Generator: SVG Repo Mixer Tools -->
<svg width="800px" height="800px" viewBox="0 -90.06 380.095 380.095" xmlns="http://www.w3.org/2000/svg"><defs><style>.a{fill:#ffffff;}.b{fill:#211715;}.c{fill:#f8b8b4;}.d{fill:#f2635f;}</style></defs><path class="a" d="M211.879,180.993a14.736,14.736,0,0,1-2.267-2.822,19.093,19.093,0,0,1-3.022-13.479,13.633,13.633,0,0,1,8.516-10.461c3.348-1.152,7.032-.724,10.48.081,4.3.256,8.3.408,13.191.343a26.891,26.891,0,0,1-11.266-17.212,31.931,31.931,0,0,1,6.1-24.665c0-9.846,6.178-23.643,13.377-31.176a39.9,39.9,0,0,1,12.83-9.484,105.113,105.113,0,0,1-7.034-21.3,56.417,56.417,0,0,1-1.511-14.084,42.049,42.049,0,0,1,2.656-14.062,15.262,15.262,0,0,1,5.182-7.169,9.032,9.032,0,0,1,7.806-1.281c4.448,1.149,7.7,6.165,9.309,9.652,6.512,14.075,5.711,31.244,5.326,46.216h8.9c-.385-14.972-1.186-32.141,5.326-46.216,1.613-3.487,4.861-8.5,9.309-9.652a9.032,9.032,0,0,1,7.806,1.281,15.262,15.262,0,0,1,5.182,7.169,42.049,42.049,0,0,1,2.656,14.062,56.417,56.417,0,0,1-1.511,14.084,105.032,105.032,0,0,1-7.05,21.332,39.852,39.852,0,0,1,12.762,9.45c7.2,7.534,13.38,21.332,13.377,31.178a31.93,31.93,0,0,1,6.1,24.663,27.217,27.217,0,0,1-7.819,14.445c4.708.93,7.208,1.637,13.1,2.449,3.48-.821,7.206-1.271,10.59-.106a13.633,13.633,0,0,1,8.516,10.461,19.093,19.093,0,0,1-3.022,13.479,14.7,14.7,0,0,1-2.268,2.822Z"/><path class="b" d="M257.732,70.5c-13.241,6.894-22.235,20.132-25.561,34.551-.693,3.006,3.934,4.289,4.629,1.276a53.961,53.961,0,0,1,8.864-19.394,41.109,41.109,0,0,1,14.49-12.289c2.741-1.427.317-5.571-2.422-4.144Z"/><path class="b" d="M230.985,112.331a34.336,34.336,0,0,0-6.132,23.482,29.5,29.5,0,0,0,10.975,19.65c3.873,3.006,8.3,4.359,12.907,5.837,2.948.946,4.21-3.687,1.276-4.629-3.607-1.157-7.168-2.126-10.328-4.294a23.208,23.208,0,0,1-6.462-6.866,25.989,25.989,0,0,1-3.118-19.5,31.944,31.944,0,0,1,5.027-11.258,2.422,2.422,0,0,0-.861-3.284,2.449,2.449,0,0,0-3.284.861Z"/><path class="b" d="M288.694,135.5c-1.927.595-6.355.221-6.722-3.413.042-4.806,5.4-5.075,7.91-3.464C291.94,129.943,292.787,133.835,288.694,135.5Z"/><path class="b" d="M286.351,128.561a2.116,2.116,0,0,1-.229.113l.574-.242a1.552,1.552,0,0,1-.377.1l.638-.086a1.478,1.478,0,0,1-.376,0l.638.086c-.073-.01-.145-.024-.217-.039-.272-.053-.548-.083-.823-.117a2.467,2.467,0,0,0-2.4,2.4l.086.638a2.4,2.4,0,0,0,.617,1.059l.486.375a2.4,2.4,0,0,0,1.211.328h.012l-.638-.085c.093.012.184.033.275.05.257.047.517.076.776.107a1.489,1.489,0,0,0,.164.012,1.4,1.4,0,0,0,.171-.008c.239-.025.483-.055.72-.1.032-.006.064-.012.1-.02a1.844,1.844,0,0,0,.217-.073,6.816,6.816,0,0,0,.8-.355,2.312,2.312,0,0,0,1.146-2.391,1.778,1.778,0,0,0-.285-.893l-.375-.485a2.389,2.389,0,0,0-1.059-.618l-.638-.085a2.384,2.384,0,0,0-1.211.327Z"/><path class="b" d="M262.126,116.36c-.785,2.539-.292,8.372,4.5,8.856,6.331-.055,6.686-7.11,4.562-10.422C269.448,112.083,264.319,110.968,262.126,116.36Z"/><path class="b" d="M309.881,116.36c.785,2.539.292,8.373-4.5,8.857-6.332-.056-6.687-7.112-4.564-10.423C302.559,112.083,307.687,110.967,309.881,116.36Z"/><path class="b" d="M285.166,144.2a27.2,27.2,0,0,1,3-2.7l-.486.376q.2-.158.411-.312l-2.909-.376a35.427,35.427,0,0,1,3.352,2.948,2.4,2.4,0,0,0,3.394-3.394,35.427,35.427,0,0,0-3.352-2.948,2.688,2.688,0,0,0-1.378-.66,2.2,2.2,0,0,0-1.53.285,31.687,31.687,0,0,0-3.9,3.383,2.4,2.4,0,0,0,3.395,3.394Z"/><path class="b" d="M284.479,136.205v2.749a2.469,2.469,0,0,0,2.4,2.4,2.426,2.426,0,0,0,1.7-.7,2.491,2.491,0,0,0,.7-1.7v-2.749a2.467,2.467,0,0,0-2.4-2.4,2.429,2.429,0,0,0-1.7.7,2.5,2.5,0,0,0-.7,1.7Z"/><path class="b" d="M311.769,74.64a41.03,41.03,0,0,1,14.489,12.289,54.039,54.039,0,0,1,8.865,19.394c.694,3.009,5.323,1.735,4.628-1.276-3.325-14.419-12.319-27.657-25.56-34.551-2.736-1.425-5.166,2.716-2.422,4.144Z"/><path class="b" d="M283.956,70.092c.23-8.879.562-17.8-.356-26.649-.85-8.2-2.573-17.06-7.123-24.1-2.084-3.224-4.951-6.309-8.757-7.389a11.99,11.99,0,0,0-12.361,3.7c-3.011,3.358-4.517,7.834-5.447,12.175a50.167,50.167,0,0,0-.837,14.807,86.113,86.113,0,0,0,3.273,16.086,90.735,90.735,0,0,0,5.857,15.532,2.424,2.424,0,0,0,3.284.861,2.449,2.449,0,0,0,.861-3.283,79.544,79.544,0,0,1-4.725-12.178,108.511,108.511,0,0,1-3.193-12.728,50.843,50.843,0,0,1-.575-13.414,32.118,32.118,0,0,1,3.178-11.911c1.649-3.094,4.446-5.791,8.206-5.289,3.1.415,5.359,2.81,7,5.307,4.038,6.153,5.695,13.966,6.494,21.179,1,9.062.66,18.2.424,27.288-.08,3.09,4.72,3.088,4.8,0Z"/><path class="b" d="M292.851,70.092a233.437,233.437,0,0,1,.124-24.087c.588-7.588,1.966-15.616,5.611-22.391,1.4-2.61,3.342-5.475,6.139-6.734,3.347-1.507,6.741-.124,8.909,2.621,2.409,3.051,3.429,7.231,4.1,10.979a47.082,47.082,0,0,1,.307,13.105A82.97,82.97,0,0,1,314.9,57.894a82.976,82.976,0,0,1-5.247,13.944,2.461,2.461,0,0,0,.861,3.283,2.422,2.422,0,0,0,3.284-.861A87.854,87.854,0,0,0,319.143,60.5,97.468,97.468,0,0,0,322.5,46.337a54.164,54.164,0,0,0,.24-14.66c-.593-4.545-1.7-9.376-4.1-13.336-2.343-3.856-6.176-6.869-10.847-6.874a13.518,13.518,0,0,0-10.458,5.416c-5.228,6.416-7.411,15.122-8.511,23.162-1.365,9.97-1.031,20.019-.771,30.047.08,3.083,4.88,3.095,4.8,0Z"/><path class="b" d="M336.793,114.754a30.139,30.139,0,0,1,5.527,20.65,24.718,24.718,0,0,1-9.135,16.287c-3.352,2.622-7.29,3.7-11.273,4.98-2.93.94-1.677,5.576,1.276,4.629,4.038-1.3,8.1-2.428,11.625-4.884a29.06,29.06,0,0,0,7.835-8.169,30.868,30.868,0,0,0,3.888-23.107,35.447,35.447,0,0,0-5.6-12.809,2.464,2.464,0,0,0-3.284-.861,2.421,2.421,0,0,0-.861,3.284Z"/><path class="b" d="M350.439,156.626c3.121-.712,6.588-1.205,9.636.079a11,11,0,0,1,5.474,5.576c2.57,5.506.492,12.886-3.739,17.015-2.214,2.161,1.181,5.554,3.395,3.394,5.85-5.709,8.037-15.391,4.488-22.832a15.417,15.417,0,0,0-7.525-7.442c-4.155-1.817-8.693-1.4-13-.419-3.01.686-1.736,5.315,1.276,4.629Z"/><path class="b" d="M362.433,141.722a15.533,15.533,0,0,0-2.791,4.946,1.812,1.812,0,0,0-.043.957,1.783,1.783,0,0,0,.284.892,2.4,2.4,0,0,0,3.284.861l.486-.375a2.407,2.407,0,0,0,.617-1.059q.119-.324.25-.641l-.242.573a13.945,13.945,0,0,1,1.8-3.083l-.375.486c.042-.055.084-.109.127-.163a2.672,2.672,0,0,0,.7-1.7,2.442,2.442,0,0,0-.7-1.7,2.417,2.417,0,0,0-1.7-.7,2.327,2.327,0,0,0-1.7.7Z"/><path class="b" d="M371.2,146.4a15.283,15.283,0,0,0-2.206,1.641,11.8,11.8,0,0,0-1.494,1.6,2.465,2.465,0,0,0,0,3.394,2.412,2.412,0,0,0,1.7.7l.638-.086a2.407,2.407,0,0,0,1.059-.617,11.9,11.9,0,0,1,2.128-2.126l-.485.375a12.166,12.166,0,0,1,1.086-.742,2.5,2.5,0,0,0,1.1-1.434,1.823,1.823,0,0,0,.043-.957,1.784,1.784,0,0,0-.285-.892,2.417,2.417,0,0,0-1.434-1.1,2.473,2.473,0,0,0-1.85.242Z"/><path class="b" d="M375.788,160.671c.234-.211.475-.412.723-.606l-.486.376a12.449,12.449,0,0,1,2.706-1.586l-.574.241.175-.072a2.312,2.312,0,0,0,1.719-2,1.823,1.823,0,0,0-.043-.957,2.431,2.431,0,0,0-1.1-1.435l-.573-.242a2.427,2.427,0,0,0-1.277,0,14.273,14.273,0,0,0-4.661,2.882,2.4,2.4,0,0,0,1.7,4.1,2.615,2.615,0,0,0,1.7-.7Z"/><path class="b" d="M226.224,152c-4.312-.982-8.85-1.4-13,.419a15.417,15.417,0,0,0-7.525,7.442c-3.549,7.442-1.362,17.123,4.488,22.832,2.213,2.159,5.61-1.232,3.4-3.394-4.231-4.129-6.309-11.509-3.739-17.015a11.049,11.049,0,0,1,5.474-5.576c3.029-1.3,6.532-.787,9.636-.079,3.007.685,4.291-3.942,1.276-4.629Z"/><path class="b" d="M209.56,145.116c.043.054.085.108.127.163l-.375-.486a13.945,13.945,0,0,1,1.8,3.083l-.242-.573q.132.317.25.641a2.677,2.677,0,0,0,1.1,1.434,2.4,2.4,0,0,0,3.283-.861,2.364,2.364,0,0,0,.242-1.849,15.533,15.533,0,0,0-2.791-4.946,2.672,2.672,0,0,0-1.7-.7,2.443,2.443,0,0,0-1.7.7,2.414,2.414,0,0,0-.7,1.7l.086.638a2.387,2.387,0,0,0,.617,1.059Z"/><path class="b" d="M201.767,150.545a12.166,12.166,0,0,1,1.086.742l-.485-.375a11.9,11.9,0,0,1,2.128,2.126,2.468,2.468,0,0,0,3.394,0,2.412,2.412,0,0,0,.7-1.7l-.085-.638a2.389,2.389,0,0,0-.618-1.059,11.8,11.8,0,0,0-1.494-1.6,15.238,15.238,0,0,0-2.207-1.641,1.771,1.771,0,0,0-.892-.285,2.462,2.462,0,0,0-2.391,1.146,2.422,2.422,0,0,0-.242,1.849,2.533,2.533,0,0,0,1.1,1.434Z"/><path class="b" d="M202.993,157.277a14.273,14.273,0,0,0-4.661-2.882,1.816,1.816,0,0,0-.958-.042,1.786,1.786,0,0,0-.892.284,2.4,2.4,0,0,0-.861,3.284l.375.486a2.407,2.407,0,0,0,1.059.617l.175.072-.574-.241a12.449,12.449,0,0,1,2.706,1.586l-.486-.376c.248.194.489.4.723.606a2.525,2.525,0,0,0,1.7.7,2.443,2.443,0,0,0,1.7-.7,2.4,2.4,0,0,0,0-3.394Z"/><path class="c" d="M347.559,171.354a6.421,6.421,0,0,1-.989-5.825,4.561,4.561,0,0,1,4.811-2.988,6.879,6.879,0,0,1,1.65.581,10.988,10.988,0,0,1,3.544,2.358,6.122,6.122,0,0,1,1.342,6.094,5.137,5.137,0,0,1-5.095,3.353,9.264,9.264,0,0,1-3.9-1.673c-.674-.422-1.436-1.247-.949-1.876"/><path class="c" d="M227.829,171.085a6.906,6.906,0,0,0,1.063-6.261,4.9,4.9,0,0,0-5.172-3.211,7.353,7.353,0,0,0-1.773.625,11.806,11.806,0,0,0-3.809,2.534,6.58,6.58,0,0,0-1.443,6.55,5.521,5.521,0,0,0,5.477,3.6,9.956,9.956,0,0,0,4.19-1.8c.724-.455,1.543-1.341,1.02-2.017"/><path class="c" d="M298.151,66.417l.121-9.636c.079-6.2.32-13,3.273-17.552.933-1.435,2.334-2.613,3.631-1.974,1.486.733,1.984,3.353,2.1,5.59.435,8.863-1.727,17.519-3.858,25.868a4.608,4.608,0,0,0-3.394-1.65"/><path class="c" d="M273.294,66.417l-.122-9.636c-.078-6.2-.319-13-3.272-17.552-.933-1.435-2.334-2.613-3.631-1.974-1.487.733-1.985,3.353-2.1,5.59-.435,8.863,1.727,17.519,3.858,25.868a4.606,4.606,0,0,1,3.394-1.65"/><path class="d" d="M281.2,180.432a33.127,33.127,0,0,0-8.244,16.418,2.46,2.46,0,0,0,1.676,2.953,2.429,2.429,0,0,0,2.952-1.677,28.268,28.268,0,0,1,7.01-14.3,2.456,2.456,0,0,0,0-3.4,2.424,2.424,0,0,0-3.394,0Z"/><path class="d" d="M304.693,187.984a5.729,5.729,0,0,0,2.667-5.35,8.2,8.2,0,0,0-2.87-5.368,18.429,18.429,0,0,0-9.447-4.422c-3.354-.58-7.643-.715-9.631,2.67-2.415,4.115,2.594,7.828,5.563,9.737a30.391,30.391,0,0,0,6.126,2.968,9.146,9.146,0,0,0,7.592-.235,2.4,2.4,0,1,0-2.422-4.144,4.371,4.371,0,0,1-3.328-.052,23.659,23.659,0,0,1-3.917-1.717,23.189,23.189,0,0,1-3.335-2.176c-.538-.438-1.056-.9-1.549-1.389a4.252,4.252,0,0,1-.382-.39c.039.051.168.247.042.01-.184-.347.077.269-.044-.108-.018-.056-.157-.565-.156-.565.037,0,0,.33-.007.351-.1.409.092-.341,0,.031,0,.013-.131.27-.161.242a3.344,3.344,0,0,1,.307-.317c-.254.249-.038.016.049-.038.125-.078.259-.148.383-.228.03-.02.355-.164.1-.059-.285.117.21-.051.266-.072.1-.038.426-.059-.068,0,.1-.012.209-.023.314-.028.254-.012.508-.029.763-.03a14.935,14.935,0,0,1,1.879.112c-.362-.043.5.085.6.1q.44.083.874.183,1,.233,1.98.561c.282.095.56.2.839.3.037.014.425.173.122.044.113.048.225.1.337.151a14.1,14.1,0,0,1,1.66.894c.109.069.837.609.479.315.27.222.533.455.789.693a5.282,5.282,0,0,1,1.213,1.405c.024.042.238.5.147.271-.066-.164.11.428.109.425-.058-.256.017.41,0,.582.042-.5-.216.56-.032.156a2.39,2.39,0,0,1-.24.4c.1-.133.384-.315-.025-.063a2.4,2.4,0,1,0,2.422,4.144Z"/><path class="d" d="M271.117,183.84c-.518-.32.19.329-.153-.134-.01-.014-.163-.35-.08-.138.1.242-.048-.222-.061-.276-.066-.275-.007,0,0,.051-.011-.16-.009-.315-.007-.474,0-.069.078-.408.01-.108a4.276,4.276,0,0,1,.136-.483c-.107.305.029-.055.058-.1.084-.144.165-.288.258-.427.016-.024.267-.346.086-.124.082-.1.172-.2.261-.294.214-.232.439-.453.67-.668q.205-.191.417-.375c.04-.035.523-.439.3-.26-.21.165.072-.05.1-.067.122-.081.241-.166.365-.246q.384-.249.787-.469c.245-.134.494-.26.746-.381.11-.053.221-.1.332-.155.712-.329-.193.069.231-.1a20.835,20.835,0,0,1,3.81-1.093c.124-.023.248-.044.373-.065.052-.009.563-.083.3-.048-.235.031.163-.017.168-.017.16-.014.32-.032.48-.044a13.246,13.246,0,0,1,1.815-.019c.139.009.28.02.419.036-.023,0-.392-.082-.152-.015.168.047.631.236.254.05a4.025,4.025,0,0,1,.762.456c-.4-.324.423.506.043.086-.2-.219-.039-.24-.013-.012,0-.051-.12-.473-.032-.472-.009,0-.216.83-.168.624.042-.182-.07.133-.09.155.259-.3-.047.039-.089.08-.3.286-.587.579-.894.856a19.394,19.394,0,0,1-3.17,2.321,24.607,24.607,0,0,1-4.223,2.049,9.341,9.341,0,0,1-2.176.612,3.24,3.24,0,0,1-1.859-.31,2.451,2.451,0,0,0-3.283.861,2.424,2.424,0,0,0,.861,3.283c4.12,2.159,8.75.13,12.474-1.982a26.8,26.8,0,0,0,4.873-3.532c1.556-1.427,2.858-3.406,2.435-5.625a5.742,5.742,0,0,0-3.889-3.961,10.441,10.441,0,0,0-4.62-.27,19.8,19.8,0,0,0-10.118,3.829,9.612,9.612,0,0,0-3.656,5.042,5.926,5.926,0,0,0,2.5,6.5,2.4,2.4,0,0,0,2.422-4.144Z"/><path class="d" d="M316.53,163.187a107.842,107.842,0,0,1-14,5.236q-3.784,1.15-7.634,2.076-1.643.395-3.3.742c-.109.022-1.589.341-.988.24-.19.032-.389.039-.581.058-1.157.114-2.359.343-3.521.347a27.985,27.985,0,0,1-2.938-.3c-.263-.027-.529-.047-.791-.082-.614-.082.683.175-.392-.089-1.215-.3-2.462-.495-3.684-.769q-3.621-.81-7.2-1.813a118.691,118.691,0,0,1-16.114-5.645,2.474,2.474,0,0,0-3.283.861,2.417,2.417,0,0,0,.861,3.283,124.805,124.805,0,0,0,15.127,5.516,88.238,88.238,0,0,0,14.573,3.445c1.2.139,2.44.344,3.647.378a22.821,22.821,0,0,0,2.853-.247,72.055,72.055,0,0,0,12.712-2.8,118.735,118.735,0,0,0,17.071-6.288,2.419,2.419,0,0,0,.861-3.283,2.455,2.455,0,0,0-3.284-.861Z"/><path class="d" d="M288.554,183.587a29.244,29.244,0,0,1,6.838,14.539,2.417,2.417,0,0,0,2.952,1.677,2.459,2.459,0,0,0,1.676-2.953,34.112,34.112,0,0,0-8.072-16.657,2.421,2.421,0,0,0-3.394,0,2.45,2.45,0,0,0,0,3.394Z"/><path class="a" d="M131.409,195.616A97.982,97.982,0,0,0,109.9,145.707q.427-.168.849-.352c7.713-3.367,13.286-10.918,14.851-19.186a32,32,0,0,0-6.113-24.71c0-9.861-6.189-23.675-13.4-31.218a39.866,39.866,0,0,0-12.782-9.465,105.215,105.215,0,0,0,7.062-21.365A56.505,56.505,0,0,0,101.883,25.3,42.1,42.1,0,0,0,99.224,11.22a15.29,15.29,0,0,0-5.19-7.18,9.045,9.045,0,0,0-7.818-1.282c-4.455,1.15-7.709,6.174-9.324,9.666-6.522,14.1-5.72,31.293-5.335,46.288H62.649c.385-15,1.187-32.191-5.335-46.288C55.7,8.932,52.445,3.908,47.991,2.758A9.046,9.046,0,0,0,40.172,4.04a15.29,15.29,0,0,0-5.19,7.18A42.129,42.129,0,0,0,32.323,25.3a56.46,56.46,0,0,0,1.513,14.107A105.269,105.269,0,0,0,40.88,60.742a39.945,39.945,0,0,0-12.849,9.5c-7.209,7.543-13.4,21.357-13.4,31.218a32,32,0,0,0-6.114,24.71c1.566,8.268,7.139,15.819,14.851,19.186.263.114.526.224.789.327a97.9,97.9,0,0,0-21.75,51.889Z"/><path class="b" d="M38.789,59.12c-13.26,6.9-22.268,20.162-25.6,34.6C12.5,96.729,17.124,98.012,17.819,95A54.017,54.017,0,0,1,26.7,75.574a41.161,41.161,0,0,1,14.514-12.31c2.74-1.427.316-5.571-2.423-4.144Z"/><path class="b" d="M12,101.019a34.385,34.385,0,0,0-6.141,23.517,29.54,29.54,0,0,0,10.991,19.677c3.879,3.011,8.313,4.366,12.925,5.845,2.949.946,4.211-3.687,1.276-4.628-3.612-1.159-7.179-2.13-10.344-4.3a23.241,23.241,0,0,1-6.474-6.878,26.033,26.033,0,0,1-3.123-19.531,31.98,31.98,0,0,1,5.035-11.277,2.422,2.422,0,0,0-.861-3.284,2.449,2.449,0,0,0-3.284.861Z"/><path class="b" d="M69.8,124.222c-1.93.6-6.364.222-6.732-3.419.042-4.813,5.406-5.082,7.923-3.468C73.049,118.656,73.9,122.554,69.8,124.222Z"/><path class="b" d="M67.453,117.276a2.211,2.211,0,0,1-.229.113l.573-.242a1.5,1.5,0,0,1-.377.1l.638-.085a1.478,1.478,0,0,1-.376-.005l.638.086c-.073-.01-.145-.024-.218-.039-.272-.053-.548-.083-.823-.117a2.464,2.464,0,0,0-2.4,2.4l.085.638a2.4,2.4,0,0,0,.618,1.059l.485.375a2.4,2.4,0,0,0,1.212.328h.012l-.638-.086c.093.013.184.034.276.051.256.047.517.076.775.107a1.526,1.526,0,0,0,.165.012,1.4,1.4,0,0,0,.171-.008c.239-.025.483-.056.72-.1q.05-.009.1-.021a1.623,1.623,0,0,0,.217-.072,6.765,6.765,0,0,0,.8-.356,2.312,2.312,0,0,0,1.146-2.391,1.774,1.774,0,0,0-.285-.892l-.375-.486a2.4,2.4,0,0,0-1.059-.617l-.638-.086a2.385,2.385,0,0,0-1.211.328Z"/><path class="b" d="M43.188,105.052c-.786,2.543-.292,8.386,4.5,8.87,6.342-.055,6.7-7.121,4.57-10.438C50.522,100.769,45.385,99.651,43.188,105.052Z"/><path class="b" d="M91.018,105.052c.786,2.543.292,8.386-4.5,8.871-6.341-.056-6.7-7.123-4.57-10.439C83.684,100.768,88.821,99.651,91.018,105.052Z"/><path class="b" d="M66.261,132.936a27.479,27.479,0,0,1,3.005-2.7l-.486.375c.137-.1.274-.209.412-.312l-2.909-.375a35.387,35.387,0,0,1,3.357,2.952,2.4,2.4,0,1,0,3.395-3.394,35.523,35.523,0,0,0-3.358-2.952,2.688,2.688,0,0,0-1.378-.66,2.2,2.2,0,0,0-1.53.284,31.859,31.859,0,0,0-3.9,3.388,2.4,2.4,0,1,0,3.394,3.394Z"/><path class="b" d="M65.58,124.928v2.753a1.815,1.815,0,0,0,.207.925,2.464,2.464,0,0,0,2.193,1.475,2.417,2.417,0,0,0,1.7-.7,2.492,2.492,0,0,0,.7-1.7v-2.753a2.467,2.467,0,0,0-2.4-2.4,2.429,2.429,0,0,0-1.7.7,2.5,2.5,0,0,0-.7,1.7Z"/><path class="b" d="M92.91,63.264a41.112,41.112,0,0,1,14.514,12.31A54.126,54.126,0,0,1,116.3,95c.694,3.008,5.323,1.735,4.628-1.276-3.331-14.441-12.338-27.7-25.6-34.6C92.6,57.7,90.166,61.836,92.91,63.264Z"/><path class="b" d="M4.809,197.571A96.164,96.164,0,0,1,25.837,147.4a2.471,2.471,0,0,0,0-3.394,2.419,2.419,0,0,0-3.395,0A99.418,99.418,0,0,0,.009,197.571a2.416,2.416,0,0,0,2.4,2.4,2.454,2.454,0,0,0,2.4-2.4Z"/><path class="b" d="M108.2,147.4a95.723,95.723,0,0,1,20.806,48.213,2.478,2.478,0,0,0,2.4,2.4,2.413,2.413,0,0,0,2.4-2.4,100.82,100.82,0,0,0-14.687-41.211,105.093,105.093,0,0,0-7.525-10.4,2.416,2.416,0,0,0-3.394,0,2.456,2.456,0,0,0,0,3.394Z"/><path class="b" d="M65.049,58.712c.23-8.893.562-17.823-.356-26.69-.852-8.217-2.578-17.086-7.135-24.134C55.471,4.66,52.6,1.571,48.79.489A12,12,0,0,0,36.414,4.2C33.4,7.561,31.89,12.044,30.959,16.39a50.288,50.288,0,0,0-.838,14.83A86.209,86.209,0,0,0,33.4,47.33a90.866,90.866,0,0,0,5.865,15.555,2.4,2.4,0,0,0,4.145-2.422,79.658,79.658,0,0,1-4.732-12.2,108.489,108.489,0,0,1-3.2-12.747A50.891,50.891,0,0,1,34.9,22.081,32.186,32.186,0,0,1,38.086,10.15c1.652-3.1,4.455-5.8,8.222-5.3,3.107.415,5.37,2.815,7.011,5.316,4.045,6.164,5.7,13.99,6.5,21.215,1,9.075.661,18.224.425,27.33-.08,3.09,4.72,3.089,4.8,0Z"/><path class="b" d="M73.957,58.712a233.872,233.872,0,0,1,.125-24.124c.589-7.6,1.969-15.642,5.62-22.428,1.407-2.615,3.348-5.485,6.149-6.746,3.355-1.51,6.755-.125,8.929,2.626,2.413,3.055,3.434,7.243,4.109,11A47.2,47.2,0,0,1,99.2,32.164,82.956,82.956,0,0,1,96.052,46.5,83.16,83.16,0,0,1,90.8,60.463a2.459,2.459,0,0,0,.861,3.283,2.424,2.424,0,0,0,3.284-.861A87.984,87.984,0,0,0,100.291,49.1a97.609,97.609,0,0,0,3.362-14.18,54.245,54.245,0,0,0,.24-14.682c-.594-4.551-1.7-9.389-4.108-13.354C97.44,3.022,93.6.005,88.924,0A13.539,13.539,0,0,0,78.452,5.423c-5.235,6.426-7.421,15.145-8.523,23.2C68.563,38.6,68.9,48.669,69.157,58.712c.08,3.083,4.881,3.095,4.8,0Z"/><path class="d" d="M62.3,169.549a33.133,33.133,0,0,0-8.245,16.418,2.46,2.46,0,0,0,1.676,2.952,2.43,2.43,0,0,0,2.953-1.676,28.271,28.271,0,0,1,7.01-14.3,2.456,2.456,0,0,0,0-3.394,2.422,2.422,0,0,0-3.394,0Z"/><path class="d" d="M85.793,177.1a5.727,5.727,0,0,0,2.666-5.35,8.2,8.2,0,0,0-2.87-5.368,18.431,18.431,0,0,0-9.446-4.423c-3.355-.58-7.644-.715-9.631,2.67-2.416,4.115,2.594,7.828,5.562,9.738a30.359,30.359,0,0,0,6.126,2.967,9.148,9.148,0,0,0,7.593-.234,2.4,2.4,0,0,0-2.423-4.145,4.364,4.364,0,0,1-3.327-.052,23.586,23.586,0,0,1-3.918-1.717,23.185,23.185,0,0,1-3.335-2.175c-.538-.439-1.056-.9-1.548-1.39a4.141,4.141,0,0,1-.383-.39c.039.051.169.247.043.01-.185-.346.077.27-.045-.107-.018-.056-.156-.565-.155-.565.037,0,0,.329-.007.35-.1.409.091-.34,0,.031,0,.014-.13.271-.16.243a3.323,3.323,0,0,1,.306-.317c-.253.248-.038.015.049-.039.126-.078.26-.148.383-.228.03-.02.356-.164.1-.058-.285.117.209-.052.265-.073.1-.038.426-.058-.067,0,.1-.012.209-.023.313-.028.255-.011.508-.028.763-.03a15.153,15.153,0,0,1,1.88.112c-.362-.043.5.085.6.1.292.054.584.116.874.183q1,.231,1.98.56c.282.095.559.2.838.3.038.014.426.172.122.043.114.049.226.1.338.152a14.162,14.162,0,0,1,1.659.893c.11.07.837.609.48.315.27.222.532.455.788.694a5.284,5.284,0,0,1,1.214,1.4c.024.043.238.5.146.271-.066-.164.11.428.11.426-.058-.257.017.409,0,.581.043-.5-.216.561-.032.157a2.337,2.337,0,0,1-.24.4c.1-.134.384-.316-.025-.064a2.4,2.4,0,1,0,2.423,4.145Z"/><path class="d" d="M52.217,172.956c-.518-.319.189.33-.153-.133-.01-.014-.164-.35-.081-.139.1.243-.048-.222-.061-.275-.066-.275-.006,0,0,.05-.012-.159-.01-.315-.008-.474,0-.069.078-.407.01-.107a4.432,4.432,0,0,1,.136-.483c-.107.3.03-.056.059-.106.084-.144.165-.287.257-.427.016-.023.267-.346.086-.123.083-.1.173-.2.261-.294.214-.232.44-.453.671-.668.136-.128.276-.252.416-.375.04-.036.523-.44.3-.26-.209.165.073-.051.1-.067.123-.081.242-.167.365-.247.256-.166.52-.322.788-.468q.367-.2.745-.381c.111-.053.222-.1.333-.156.711-.328-.193.07.231-.1a20.845,20.845,0,0,1,3.809-1.092c.124-.023.249-.045.373-.066.053-.008.564-.083.3-.048-.234.031.164-.016.169-.017.16-.014.32-.031.48-.043a12.921,12.921,0,0,1,1.814-.019c.14.009.28.019.419.035-.022,0-.391-.082-.151-.015.168.047.63.236.253.051a3.989,3.989,0,0,1,.762.455c-.395-.323.424.507.044.086-.2-.219-.039-.239-.013-.012-.006-.051-.12-.472-.033-.471-.008,0-.216.83-.168.623.043-.182-.07.133-.09.156.259-.3-.047.039-.089.079-.3.286-.587.58-.894.857a19.444,19.444,0,0,1-3.169,2.321,24.654,24.654,0,0,1-4.224,2.049,9.4,9.4,0,0,1-2.175.612,3.246,3.246,0,0,1-1.859-.311,2.455,2.455,0,0,0-3.284.861,2.427,2.427,0,0,0,.861,3.284c4.121,2.159,8.75.13,12.474-1.982a26.823,26.823,0,0,0,4.873-3.533c1.556-1.427,2.858-3.405,2.436-5.625a5.744,5.744,0,0,0-3.89-3.96,10.425,10.425,0,0,0-4.62-.271,19.8,19.8,0,0,0-10.118,3.829,9.613,9.613,0,0,0-3.655,5.043,5.925,5.925,0,0,0,2.5,6.5,2.4,2.4,0,0,0,2.423-4.145Z"/><path class="d" d="M97.63,152.3a107.9,107.9,0,0,1-14,5.236q-3.786,1.151-7.634,2.077-1.642.393-3.3.741c-.108.023-1.589.341-.987.241-.191.032-.389.038-.582.057-1.156.114-2.358.343-3.52.347a27.955,27.955,0,0,1-2.938-.3c-.263-.028-.529-.047-.791-.082-.615-.082.682.174-.392-.09-1.216-.3-2.462-.5-3.684-.768q-3.621-.811-7.195-1.813A118.512,118.512,0,0,1,36.492,152.3a2.477,2.477,0,0,0-3.284.861,2.419,2.419,0,0,0,.861,3.284A124.8,124.8,0,0,0,49.2,161.963a88.241,88.241,0,0,0,14.573,3.446c1.2.139,2.441.344,3.648.378a23.223,23.223,0,0,0,2.853-.247,72.025,72.025,0,0,0,12.711-2.8,118.766,118.766,0,0,0,17.071-6.288,2.419,2.419,0,0,0,.861-3.284,2.454,2.454,0,0,0-3.283-.861Z"/><path class="d" d="M69.654,172.7a29.246,29.246,0,0,1,6.837,14.54,2.417,2.417,0,0,0,2.952,1.676,2.458,2.458,0,0,0,1.677-2.952,34.111,34.111,0,0,0-8.072-16.658,2.421,2.421,0,0,0-3.394,0,2.448,2.448,0,0,0,0,3.394Z"/><path class="b" d="M117.975,103.442a30.191,30.191,0,0,1,5.536,20.684,24.76,24.76,0,0,1-9.151,16.316c-3.358,2.626-7.3,3.708-11.292,4.988-2.929.94-1.677,5.576,1.276,4.628,4.044-1.3,8.117-2.431,11.643-4.891a29.085,29.085,0,0,0,7.846-8.18,30.916,30.916,0,0,0,3.894-23.14,35.537,35.537,0,0,0-5.607-12.828,2.463,2.463,0,0,0-3.284-.861,2.421,2.421,0,0,0-.861,3.284Z"/><path class="c" d="M89.41,28.046a3.3,3.3,0,0,0-2.1-2.559A3.188,3.188,0,0,0,84.265,26.5a7.744,7.744,0,0,0-1.782,2.85,96.593,96.593,0,0,0-4.407,26.075,1.887,1.887,0,0,0,.632,1.63A12.164,12.164,0,0,0,82.98,58.6a2.393,2.393,0,0,0,1.582-.164,1.5,1.5,0,0,0,.7-.989c1.422-5.607,2.421-10.436,3.436-15.792A55.717,55.717,0,0,0,89.69,30.4,10.853,10.853,0,0,0,89.41,28.046Z"/><path class="c" d="M43.985,28.98a3.3,3.3,0,0,1,2.1-2.559,3.187,3.187,0,0,1,3.043,1.015,7.731,7.731,0,0,1,1.782,2.85,96.548,96.548,0,0,1,4.407,26.075,1.887,1.887,0,0,1-.632,1.63,12.176,12.176,0,0,1-4.272,1.541,2.4,2.4,0,0,1-1.582-.165,1.493,1.493,0,0,1-.7-.988C46.71,52.772,45.711,47.943,44.7,42.587a55.717,55.717,0,0,1-.99-11.25A10.852,10.852,0,0,1,43.985,28.98Z"/></svg>